<?xml version="1.0" encoding="UTF-8" standalone="no"?>
<svg width="64" height="64" viewBox="0 0 1140 1090" version="1.1" xmlns="http://www.w3.org/2000/svg" xmlns:xlink="http://www.w3.org/1999/xlink" style="fill-rule:evenodd;clip-rule:evenodd;stroke-linejoin:round;stroke-miterlimit:2;">

    <g transform="matrix(1,0,0,1,-1184.238431,-1509.960062)">
        <g transform="matrix(1.772146,0,0,1.772146,854.160205,1278.557088)">
            <path d="M242.51,218.068L243.541,218.47C244.004,220.21 246.401,229.22 251.289,239.598C283.821,308.666 343.878,341.159 377.331,358.817C394.183,367.712 394.234,367.866 394.753,369.412C405.837,402.447 397.233,450.76 426.398,499.568C429.649,505.008 447.698,535.212 480.74,557.215C485.282,560.239 479.637,560.623 478.596,560.89C475.652,561.646 436.662,573.288 396.525,557.442C378.833,550.457 378.544,548.816 379.68,547.755C381.861,545.717 383.157,552.484 417.426,547.088C420.486,546.606 448.419,539.721 448.976,538.651C450.249,536.203 447.83,537.474 439.5,537.707C385.212,539.222 364.157,534.933 335.668,513.322C334.714,512.599 334.891,510.597 337.492,511.553C361.037,520.207 401.615,511.344 418.417,509.295C418.648,508.984 418.879,508.674 419.11,508.363C418.901,507.956 419.327,507.38 417.647,507.199C417.288,507.16 411.447,507.123 408.459,506.962C333.92,502.937 318.691,495.169 295.828,465.314C292.005,460.322 299.285,464.23 299.556,464.375C303.024,466.236 316.34,473.383 347.51,475.353C351.098,475.58 371.033,476.84 392.433,476.145C393.221,476.12 395.72,474.214 392.387,473.798C383.291,472.664 381.068,472.213 366.556,468.307C317.524,455.108 293.686,449.039 273.257,409.624C273.05,409.223 267.863,399.216 273.182,403.988C281.778,411.701 286.458,412.794 294.26,416.925C320.045,430.578 380.994,439.318 381.569,438.577C382.83,436.949 380.976,437.253 369.67,433.012C297.292,405.863 276.461,380.577 270.58,373.438C254.06,353.386 247.255,322.924 253.11,330.881C280.833,368.563 352.094,391.167 370.491,398.538C372.862,399.487 373.807,397.797 372.251,396.811C322.177,365.077 273.015,338.126 247.474,279.512C236.484,254.288 239.508,226.185 241.424,218.449C241.752,217.126 242.399,218.107 242.51,218.068Z" style="fill:rgb(204,158,38);"/>
        </g>
        <g transform="matrix(1.772146,0,0,1.772146,854.160205,1278.557088)">
            <path d="M703.596,703.605C707.079,699.976 740.665,670.553 766.843,622.688C862.973,446.913 775.363,251.305 633.278,187.986C473.834,116.931 342.932,228.694 340.497,228.576C338.534,228.48 329.462,210.742 329.45,210.503C329.272,206.95 364.592,185.499 370.412,182.34C517.782,102.326 665.672,147.455 752.923,254.129C814.35,329.231 841.926,432.933 823.639,527.527C802.332,637.742 738.577,699.732 719.341,718.315C711.97,725.436 710.546,723.666 703.504,723.383C685.313,722.651 680.15,722.996 684.025,720.135C689.778,715.886 702.126,704.748 703.596,703.605Z" style="fill:rgb(206,160,44);"/>
        </g>
        <g transform="matrix(1.772146,0,0,1.772146,854.160205,1278.557088)">
            <path d="M669.447,469.397C669.381,466.401 668.574,466.762 666.14,464.939C657.724,458.634 657.012,458.736 654.302,448.556C650.613,434.696 638.028,427.477 633.546,426.37C590.455,415.735 589.556,466.574 552.588,479.743C536.181,485.588 518.833,473.558 527.506,481.495C541.511,494.313 542.609,492.728 551.282,496.785C552.129,497.182 552.703,499.726 548.495,498.566C506.912,487.1 510.13,467.422 485.688,428.378C447.885,367.991 369.494,367.646 303.722,290.318C267.633,247.888 242.551,195.008 272.791,132.673C276.13,125.79 275.093,136.593 277.868,154.46C284.784,198.989 314.826,257.183 357.647,297.333C418.192,354.1 459.983,360.065 487.908,402.24C506.718,430.648 514.367,473.992 524.675,476.027C539.071,478.87 545.043,475.058 550.347,472.232C554.142,470.209 562.499,465.756 586.978,432.9C596.662,419.902 617.878,412.249 630.435,415.741C655.482,422.707 659.865,439.714 662.319,449.542C665.41,461.923 675.07,460.122 680.032,473.685C683.361,482.782 675.022,474.253 661.491,476.454C619.549,483.273 623.646,537.784 606.936,577.695C581.322,638.876 529.082,652.15 501.437,662.321C459.987,677.571 467.165,711.309 444.146,733.122C426.972,749.397 405.807,747.08 389.71,740.015C378.886,735.265 367.824,726.438 367.809,726.381C367.195,723.986 373.479,726.221 373.536,726.232C415.721,734.596 441.638,686.246 457.97,666.904C491.158,627.598 557.193,647.587 596.068,561.308C610.261,529.807 615.11,464.951 669.447,469.397Z" style="fill:rgb(201,156,41);"/>
        </g>
        <g transform="matrix(1.772146,0,0,1.772146,854.160205,1278.557088)">
            <path d="M192.034,529.576C169.823,422.436 218.676,331.205 221.016,325.309C221.348,324.474 227.303,309.471 227.807,316.358C228.97,332.247 233.162,344.788 234.036,350.542C235.37,359.316 189.757,430.812 218.623,543.463C239.675,625.617 291.248,676.854 293.06,678.904C319.149,708.403 324.336,705.649 322.894,708.698C322.891,708.704 297.417,715.713 294.693,713.253C240.498,664.291 201.972,591.313 192.034,529.576Z" style="fill:rgb(199,153,37);"/>
        </g>
        <g transform="matrix(1.772146,0,0,1.772146,854.160205,1278.557088)">
            <path d="M322.482,649.746C366.887,651.055 404.179,638.929 439.572,598.56C446.509,590.648 454.202,576.397 455.298,574.366C456.28,572.547 465.215,570.647 464.268,573.458C460.451,584.779 426.781,646.498 381.367,666.201C376.831,668.169 351.729,681.14 328.761,668.039C317.446,661.584 308.984,648.466 312.54,648.718C313.337,648.774 313.276,648.794 322.482,649.746Z" style="fill:rgb(191,145,34);"/>
        </g>
        <g transform="matrix(1.772146,0,0,1.772146,854.160205,1278.557088)">
            <path d="M353.424,703.622C344.445,697.682 342.101,695.398 336.951,689.09C329.453,679.906 343.397,690.63 374.589,681.811C411.103,671.486 435.973,657.674 436.488,657.443C443.328,654.384 426.955,674.879 424.546,677.538C394.57,710.636 373.731,713.119 353.424,703.622Z" style="fill:rgb(189,143,33);"/>
        </g>
        <g transform="matrix(1.772146,0,0,1.772146,854.160205,1278.557088)">
            <path d="M693.621,473.611C693.892,473.65 693.997,473.066 694.267,473.105C694.445,473.13 694.424,473.159 696.389,473.828C717.079,467.044 718.569,469.489 725.046,462.09C727.01,459.845 735.73,446.259 764.615,453.28C767.613,454.009 763.422,456.911 760.417,459.394C736.467,479.178 729.612,466.967 720.486,469.379C703.295,473.923 694.569,478.275 692.439,479.337C678.443,486.548 678.461,486.517 666.253,496.427C666.368,496.754 666.484,497.082 666.6,497.41C677.843,498.287 700.541,488.915 714.663,523.455C714.736,523.634 715.617,525.788 713.51,525.583C670.924,521.425 679.775,504.794 671.376,500.724C665.543,497.898 659.975,503.557 659.267,504.276C636.493,527.42 644.996,534.128 639.432,536.107C639.4,536.118 634.099,536.193 636.171,532.326C642.5,520.508 649.158,496.542 686.659,477.828C690.307,476.008 691.005,477.014 693.621,473.611Z" style="fill:rgb(195,152,39);"/>
        </g>
        <g transform="matrix(1.772146,0,0,1.772146,854.160205,1278.557088)">
            <path d="M694.394,480.773C697.114,478.993 697.273,479.473 700.518,479.738C708.033,480.352 719.544,469.195 739.478,488.525C742.157,491.123 748.64,495.81 744.502,496.506C738.046,497.592 722.224,501.422 710.572,493.384C701.945,487.434 704.629,483.423 694.394,480.773Z" style="fill:rgb(195,151,38);"/>
        </g>
        <g transform="matrix(1.772146,0,0,1.772146,854.160205,1278.557088)">
            <path d="M697.491,470.49C697.237,470.881 696.982,471.271 696.728,471.662L696.389,473.828C694.424,473.159 694.445,473.13 694.267,473.105C693.997,473.066 693.892,473.65 693.621,473.611C697.594,463.297 689.789,452.257 704.737,437.75C705.692,436.824 718.693,425.429 717.746,431.5C715.803,443.964 718.074,458.8 701.624,467.742C698.777,469.29 698.97,469.507 697.491,470.49Z" style="fill:rgb(199,155,38);"/>
        </g>
        <g transform="matrix(1.772146,0,0,1.772146,854.160205,1278.557088)">
            <path d="M631.423,455.259C615.52,457.454 622.458,437.802 632.612,443.311C634.068,444.101 639.75,451.204 631.423,455.259Z" style="fill:rgb(199,155,39);"/>
        </g>
        <g transform="matrix(1.772146,0,0,1.772146,854.160205,1278.557088)">
            <path d="M721.52,493.345C727.298,491.264 731.955,493.158 733.173,492.316C733.46,492.117 735.566,490.661 737.536,492.287C738.745,493.286 736.952,493.469 736.676,493.784C735.918,494.649 730.98,494.475 730.482,494.458C725.906,494.297 726.068,493.776 721.52,493.345Z" style="fill:rgb(196,151,42);"/>
        </g>
        <g transform="matrix(1.772146,0,0,1.772146,854.160205,1278.557088)">
            <path d="M791.434,357.398C790.743,356.296 790.019,356.614 790.16,354.458C790.178,354.181 791.782,335.863 791.677,351.343C791.656,354.44 792.682,354.473 791.434,357.398Z" style="fill:rgb(211,161,53);"/>
        </g>
    </g>
</svg>